<svg width="55" height="55" viewBox="0 0 55 55" fill="none" xmlns="http://www.w3.org/2000/svg">
<path d="M41.8374 19.6H41.3274C40.6968 19.6 40.1028 19.894 39.7194 20.3944L34.4994 27.2206L29.2794 20.3944C28.8972 19.894 28.3026 19.6 27.6726 19.6H27.1626L33.7452 28.2076L27.0216 37H27.5316C28.1622 37 28.7562 36.706 29.139 36.2056L34.5 29.1952L39.861 36.2056C40.2438 36.706 40.8378 37 41.4684 37H41.9784L35.2548 28.2076L41.8374 19.6Z" fill="black"/>
<path d="M24.7734 33.5452C23.241 35.8738 20.2242 37.0672 17.34 36.0148C14.8026 35.089 13.2 32.5666 13.2 29.8654V29.2H20.4H27V26.7196C27 22.8166 24.1092 19.3996 20.223 19.0342C15.7638 18.6148 12 22.126 12 26.5V29.8438C12 33.0664 13.929 36.0622 16.9614 37.1536C20.9232 38.5792 25.0902 36.4516 26.499 32.8H26.1162C25.5696 32.8 25.0734 33.0886 24.7734 33.5452ZM13.2 26.5C13.2 23.026 16.026 20.2 19.5 20.2C22.974 20.2 25.8 23.026 25.8 26.5V28H13.2V26.5Z" fill="black"/>
</svg>
