<svg width="55" height="55" viewBox="0 0 55 55" fill="none" xmlns="http://www.w3.org/2000/svg">
<path d="M40.7627 34.144C41.2194 34.5742 40.8956 35.3092 40.2503 35.3092H28.225C27.8238 35.3092 27.5 35.6142 27.5 35.992V47.3162C27.5 47.9238 26.7194 48.2288 26.2627 47.7987L13.2827 35.5755C13.1015 35.4048 13 35.1727 13 34.9315V22.3373C13 21.9596 13.3238 21.6546 13.725 21.6546H27.5L40.7627 34.144Z" fill="black"/>
<path d="M27.5 21.6546L14.2373 9.1652C13.7806 8.73507 14.1044 8 14.7497 8H41.275C41.6762 8 42 8.30495 42 8.68273V20.9719C42 21.3497 41.6762 21.6546 41.275 21.6546H27.5Z" fill="black"/>
</svg>
