<svg width="55" height="55" viewBox="0 0 55 55" fill="none" xmlns="http://www.w3.org/2000/svg">
<g clip-path="url(#clip0_104_184)">
<path d="M28.4334 16.2803C28.4334 16.2803 28.4139 16.5817 28.3558 16.9332C28.608 17.1508 28.9379 17.4522 29.1903 17.6364C29.3649 17.7704 29.7917 17.7536 30.1799 17.7536C30.5292 17.7536 30.8396 17.7871 30.9755 17.7202C31.2861 17.5862 31.7323 17.2514 31.9846 17.0002C31.9652 16.6989 31.9458 16.4142 31.9265 16.2803C31.9068 16.0458 28.899 16.0458 28.4334 16.2803Z" fill="#010101"/>
<path d="M30.1992 17.5526C29.9663 17.5526 29.6946 17.5359 29.4812 17.5024C29.3841 17.4857 29.2871 17.4355 29.2095 17.402C29.0736 17.3182 28.9378 17.2178 28.7827 17.1173C28.4721 16.9164 28.4528 16.7992 28.4528 16.7491C28.5886 15.6942 28.4139 14.8069 28.4139 14.8069C28.4139 14.8069 28.278 14.3548 29.0154 14.2376C29.7528 14.1204 30.1991 14.1037 30.1991 14.1037C30.1991 14.1037 30.6649 14.1037 31.3828 14.2376C32.1202 14.3548 31.9844 14.8069 31.9844 14.8069C31.9844 14.8069 31.8097 15.6942 31.9456 16.7491C31.9456 16.7992 31.9263 16.9164 31.6157 17.1173C31.344 17.2847 31.1306 17.4689 30.9172 17.5024C30.7037 17.5359 30.432 17.5526 30.1992 17.5526Z" fill="#010101"/>
<path d="M30.1992 13.6684C28.9185 13.6684 28.6662 13.9697 28.2975 14.3046C28.2199 14.3883 28.2781 14.8906 28.414 15.9621H28.5886C28.5886 15.9621 28.4721 15.6607 28.4916 15.3091C28.511 14.9576 28.5886 14.9744 28.5303 14.8906C28.4528 14.7901 28.2975 14.6226 28.6468 14.4553C28.9961 14.2878 29.5394 14.5892 30.1992 14.6059C30.859 14.5892 31.4217 14.2878 31.771 14.4553C32.1202 14.6226 31.965 14.7901 31.8875 14.8906C31.8098 14.991 31.9068 14.9575 31.9263 15.3091C31.9456 15.6607 31.8292 15.9621 31.8292 15.9621H32.0038C32.1202 14.8906 32.1979 14.4218 32.1397 14.3381C31.8098 13.9697 31.4799 13.6851 30.1992 13.6684ZM36.3505 26.8615C36.3505 26.8615 35.9818 27.8828 35.2639 28.2344C35.1086 28.1675 35.128 28.067 34.9922 27.9163C34.9533 27.8661 34.8175 27.8325 34.7594 27.7824C34.7011 27.7321 34.7206 27.6484 34.6235 27.5815C34.5459 27.5145 34.4877 27.5647 34.41 27.5145C34.3325 27.4476 34.3129 27.3638 34.2548 27.3137C34.2159 27.2801 34.0608 27.2635 34.022 27.2299C33.9249 27.1462 33.0712 26.9955 33.11 26.8281C33.1875 26.5769 33.3428 26.3927 33.3428 26.3927C33.3428 26.3927 33.7115 25.924 34.0801 25.9406C34.4488 25.9574 34.7981 26.0244 34.9922 25.8737C35.2057 25.7062 36.4088 26.3257 36.3505 26.8615Z" fill="#010101"/>
<path d="M33.8279 19.4614C33.8279 19.4614 35.0504 19.2102 35.8848 19.8967C36.7193 20.5999 36.661 21.4704 36.4088 22.0062C36.6222 22.2239 37.0103 22.8265 36.7193 23.5465C38 24.484 37.4372 25.924 36.2924 26.8783C36.2924 26.8783 36.0207 26.0077 34.9341 25.9574C34.9728 25.6226 33.925 25.3547 34.4101 24.484C33.6727 24.3334 33.6921 23.8981 33.5757 23.3624C33.4787 22.8265 33.8279 19.4614 33.8279 19.4614Z" fill="#010101"/>
<path d="M26.5123 25.656C26.5123 25.656 27.0362 25.6727 27.502 25.8067C27.9483 25.9406 27.9483 26.0243 28.123 26.1918C28.2976 26.3593 28.7245 26.6103 28.6469 26.8614C28.6081 26.9954 28.5111 27.0289 28.3752 27.1461C28.317 27.1963 27.89 27.5981 27.793 27.6483C27.7348 27.6818 27.6572 27.7321 27.599 27.7655L27.3079 27.933C27.1139 28.0167 26.978 28.0669 26.7646 28.0502C26.7646 28.0502 26.2795 28.0334 25.9689 27.7488C25.9689 27.7488 25.9302 27.6149 26.0078 27.5479C26.0078 27.5479 25.6003 27.2465 25.4838 27.0456C25.3673 26.8448 25.3673 26.5602 25.4451 26.4095C25.4838 26.2587 26.2406 25.8401 26.5123 25.656ZM26.9975 41.9465L26.9392 42.3651C26.9392 42.3651 26.7646 42.5492 25.4645 42.5326C24.1449 42.5158 23.7957 42.1642 23.6793 41.98L23.6017 41.5447C23.6017 41.5447 23.854 41.2266 23.9122 41.2266C24.3391 41.2601 25.7945 41.7624 26.8036 41.8963C26.9004 41.8963 26.9197 41.9297 26.9975 41.9465ZM29.8111 41.0926C29.8111 41.2767 29.7917 41.2767 29.7917 41.4609C30.0245 41.6116 30.6068 41.6954 31.7128 41.6785C33.3234 41.6451 34.8176 42.0972 36.6416 41.8292L36.661 41.5279L36.4864 41.5112L30.0245 41.0591L29.8111 41.0926Z" fill="#010101"/>
<path d="M31.2277 41.6786H31.7128C32.7607 41.6452 33.7504 41.8461 34.8176 41.8963C35.3803 41.8795 36.0789 41.7623 36.0207 41.4108L30.5097 41.0089C30.1798 41.327 30.432 41.5949 31.2277 41.6786ZM24.9017 34.63C25.0763 34.7305 26.26 35.3332 28.1811 35.2495C28.1422 35.5676 28.1616 36.1871 27.3079 37.2753C26.881 37.8111 26.5122 38.7487 26.4346 39.9374C26.4541 40.2053 26.6287 40.4397 26.3958 40.7913C26.4734 41.0089 26.7839 41.4442 26.9392 41.7121C27.0944 41.9801 27.172 42.2814 26.1435 42.2982C25.0956 42.3148 23.4074 42.2144 23.6403 41.5113C23.7568 41.143 24.0866 40.7579 24.1255 40.6071C24.1643 40.4564 24.1643 40.0044 24.4941 39.703C24.7852 38.8659 24.6882 38.0623 24.63 37.3088C24.533 36.5219 24.5135 35.2662 24.9017 34.63ZM26.7063 20.9848C28.0841 19.3942 26.9197 18.1219 24.7077 18.5069C23.815 18.6576 22.9225 19.1934 22.8642 20.1644C22.5731 20.1979 21.9134 20.2313 21.5835 21.2694C21.3313 22.073 21.1954 22.2237 20.749 22.6255C20.458 22.9101 20.7684 23.4961 20.9818 23.9148C21.6999 25.3546 23.912 25.4885 25.4062 26.5768C25.9107 26.4596 26.4346 25.9741 26.5899 25.656C25.3286 24.3668 25.6002 23.8645 25.0956 23.1949C25.639 23.0274 26.881 22.3745 26.7063 20.9848Z" fill="#010101"/>
<path d="M12.7931 26.2086C11.8033 26.6103 9.18372 28.4185 8.67917 28.9543C8.1552 29.49 8.00001 28.6529 8.54332 27.2633C8.97012 26.1416 10.0569 24.618 11.881 23.3121C12.9481 22.5587 15.2962 21.4704 16.7321 20.8342C17.0233 20.7002 20.7878 19.3273 24.1448 18.6409C24.436 18.5739 23.7956 19.0594 23.6985 19.3273C23.194 20.5997 13.1228 26.0578 13.1228 26.0578L12.7931 26.2086ZM26.9779 41.5614C27.1526 42.4655 26.9974 42.5325 25.9107 42.6497C24.824 42.7669 24.0284 42.4153 23.7374 42.1809C23.4462 41.9464 23.3881 41.4275 23.6792 40.9587C23.8539 40.6573 24.0285 40.5569 24.1256 40.1885C24.2226 39.837 24.3002 39.7532 24.3778 39.6193C24.4553 39.502 24.4749 39.3848 24.4942 38.5645C24.5136 37.7442 24.4942 36.2038 24.5913 35.5509C24.6884 34.8812 28.0454 35.8522 28.0454 35.8522C28.0454 35.8522 27.2497 37.56 27.0363 37.9785C26.8228 38.3971 26.8423 39.2007 26.8423 39.3681C26.8423 39.5356 26.7647 39.8704 26.7064 39.8871C26.6482 39.9038 26.9005 40.3391 26.784 40.5903C26.7063 40.8248 26.9586 41.4275 26.9779 41.5614ZM28.2587 15.9621C28.1422 15.3259 28.2587 14.07 28.4139 13.8692C28.8991 13.2999 31.4605 13.233 32.0039 13.9027C32.2367 14.204 32.2173 14.9072 32.1785 15.3593C32.1398 15.8113 32.0039 16.7824 31.9845 17.1006C31.9651 17.335 29.1514 17.7033 28.5304 17.067C28.3557 16.8997 28.2587 15.9621 28.2587 15.9621ZM33.9638 39.9374C35.1475 40.6741 36.0595 40.808 36.661 41.0759C37.2625 41.3438 37.1073 41.8628 36.0983 42.0135C35.2832 42.1474 34.0025 41.8795 33.1487 41.8795C32.295 41.8795 30.3932 41.9633 29.8887 41.6619C29.3066 41.3104 29.5588 40.6573 29.5588 40.6573C29.714 40.2891 30.1021 39.4686 29.9857 38.7989C29.8692 38.1293 29.7139 37.7609 29.4229 37.1414C29.1319 36.522 28.9185 34.9984 29.1902 34.9147C29.4619 34.8309 29.3841 34.9147 29.7335 34.9816C30.0827 35.0485 30.4709 35.149 31.2277 35.149C31.9845 35.149 32.8188 35.0485 33.11 34.9984C33.401 34.9481 33.6339 34.8978 33.5368 35.4169C33.4398 35.9359 33.1487 36.907 33.1293 37.6604C33.11 38.4138 33.11 39.2845 33.1682 39.4351C33.2263 39.5858 33.6533 39.7532 33.9638 39.9374Z" fill="#010101"/>
<path d="M29.8111 17.6364C27.6766 19.227 23.5433 19.6622 17.4115 21.7048C15.8396 22.2238 11.6482 23.7809 10.6391 25.4049C14.035 23.714 15.2963 26.0412 15.5679 28.4353C15.8201 30.6788 17.1203 31.8509 20.458 31.7838C23.8927 31.7169 24.9405 33.4413 25.8913 35.4672C27.7347 27.7154 30.6844 26.2086 32.5859 24.886C36.6222 22.0564 31.6546 17.0671 29.8111 17.6364Z" fill="#8AC640"/>
<path d="M29.8111 17.6364C24.6883 19.1767 19.6235 19.5617 13.6663 22.7261C12.2497 23.4795 9.26135 25.1872 8.67917 28.4521C10.8524 26.3759 15.8783 23.7642 22.0297 22.1067C25.1345 21.2695 27.4049 20.717 30.1604 19.7962C29.9664 18.7246 29.9664 18.306 29.8111 17.6364Z" fill="#8AC640"/>
<path d="M36.3505 26.8113C36.3505 26.8113 35.9818 27.8995 35.2445 28.2512C35.2445 28.2512 34.7012 28.4186 33.6145 27.8996C33.304 27.749 33.0712 27.23 33.0905 27.0624C33.11 26.6606 33.401 26.4765 33.401 26.4765C33.401 26.4765 33.7116 26.0244 34.0802 26.0411C34.449 26.0578 35.0699 26.1081 35.264 25.9574C35.4385 25.7899 36.3894 26.2587 36.3505 26.8113ZM28.4334 16.2802C28.4334 16.2802 28.3558 17.1341 28.22 17.6698C28.2005 17.7703 27.6184 17.8205 27.1914 17.9712C28.0065 19.9803 32.9159 19.9635 33.5563 18.9758C33.2458 18.7917 32.6249 18.507 32.3338 18.4066C32.0427 18.306 32.0621 18.3228 32.0427 17.854C32.0234 17.3852 31.9845 16.5146 31.9456 16.2802C31.9068 16.0458 28.899 16.0458 28.4334 16.2802Z" fill="#010101"/>
<path d="M28.6274 16.2802C28.6274 16.2802 28.6274 16.7657 28.5692 17.2345C28.5499 17.4522 28.5304 17.5861 28.4917 17.7535C28.4722 17.854 29.1514 18.2557 29.3454 19.1431C30.2769 20.9345 32.4309 20.0472 33.3235 19.1934C33.013 19.0091 32.5085 18.758 31.9264 18.5571C31.6352 18.4566 31.7711 18.239 31.7517 17.7703C31.7323 17.3015 31.6547 16.615 31.6159 16.3639C31.5769 16.1128 29.0932 16.0458 28.6274 16.2802Z" fill="#F0EFEF"/>
<path d="M33.3816 19.9301C33.3816 19.9301 34.7981 19.3107 35.6326 20.0139C36.4669 20.7171 36.234 21.4872 35.9818 22.0229C36.1952 22.2405 36.6998 22.8601 36.3893 23.5967C36.3311 23.7641 35.9042 23.7641 35.5936 24.1995C36.3698 23.8143 36.855 23.9148 37.0296 24.4003C37.3013 25.1537 36.6997 26.0578 36.1758 26.5601C36.1758 26.5433 36.1564 26.5265 36.1564 26.5099C36.0788 26.7611 35.9817 27.2465 35.3996 27.7823C35.1085 28.0502 34.8757 28.0167 34.5457 27.9497C34.1577 27.866 34.0219 27.7152 33.4786 27.4642C33.1681 27.3135 33.3427 27.1293 33.3427 26.9786C33.3427 26.9452 33.3815 26.8949 33.4398 26.828C33.4786 26.7442 33.595 26.6104 33.7696 26.4596C33.7696 26.4596 34.0219 26.1583 34.3907 26.175C34.7593 26.1918 35.1474 26.1248 35.2444 26.0411C35.2444 25.4551 34.4683 25.4383 34.7399 24.4338C34.7593 24.3836 34.8564 24.2998 35.1668 24.2664C34.701 24.1826 34.4876 24.1658 34.1577 23.898C33.9249 23.7139 33.7503 23.4795 33.692 23.1781C33.5756 22.6592 33.3816 19.9301 33.3816 19.9301Z" fill="#F0EFEF"/>
<path d="M29.2871 18.8753C29.1707 18.7413 28.5692 18.0717 27.4243 17.8038C27.0943 17.72 26.8809 17.9545 26.5511 18.1219C26.454 18.0717 26.0272 17.9042 25.7943 18.0214C25.5615 18.1385 25.4063 18.2558 25.1734 18.3395C25.0568 18.2893 24.7465 18.2893 24.4942 18.3729C24.2419 18.4399 23.8538 18.5906 23.4851 19.0259C23.2523 19.7459 27.5989 19.21 27.5989 19.21L29.2871 18.8753Z" fill="#010101"/>
<path d="M29.326 18.8753C28.7049 18.6911 28.802 18.0717 27.4243 17.9712C27.1525 17.9545 26.9779 18.1386 26.7839 18.2558C26.8809 18.3396 26.9779 18.4735 27.0361 18.6074C26.8615 18.44 26.551 18.2223 26.2404 18.172C25.9494 18.1219 25.7553 18.306 25.4449 18.44C25.503 18.4901 25.5613 18.5739 25.6388 18.6744C25.3671 18.5238 25.1732 18.4735 24.8045 18.5907C24.5522 18.6576 24.0671 18.8418 23.6984 19.2939C23.4656 20.0138 27.6182 19.2101 27.6182 19.2101L29.326 18.8753Z" fill="#8AC640"/>
<path d="M32.9741 19.1432C32.9741 19.1432 32.9741 18.959 32.9547 18.7917C32.9547 18.7582 32.7995 18.6744 32.7995 18.641L32.7607 18.6075C32.7607 18.6075 33.0712 18.4568 33.304 18.5405C33.5562 18.6075 33.6921 18.8921 33.6921 18.8921C34.1384 18.7582 34.1772 18.9089 34.3907 19.1098C34.8564 19.026 34.9145 19.1767 35.2057 19.5451C35.2057 19.5451 34.8564 19.4949 34.1773 19.5952C33.5174 19.6789 32.9741 19.1264 32.9741 19.1432Z" fill="#010101"/>
<path d="M32.8965 19.0595C32.8965 19.0595 33.0129 18.9757 32.974 18.9589C33.1874 18.8585 33.4786 18.7413 33.6144 19.0595C34.0608 18.9255 34.119 19.1097 34.3324 19.3106C34.8757 19.093 34.9145 19.3608 34.9533 19.478C34.7787 19.478 34.5265 19.4948 34.1772 19.5282C33.5174 19.612 32.8771 19.0427 32.8965 19.0595Z" fill="#8AC640"/>
<path d="M26.2989 18.6409C26.2989 18.6409 27.4049 18.9757 28.3364 18.9255C29.2678 18.8586 30.859 18.7916 31.7128 19.2269C31.7128 19.2269 32.586 18.959 33.401 19.1432C34.2161 19.3273 35.7102 20.5328 35.264 21.8052C35.2251 21.889 34.9729 22.0229 34.6818 22.1066C34.6818 22.1066 34.8371 22.6758 34.5654 23.1446C34.2937 23.5967 33.6922 24.4673 33.6727 25.6728C33.6534 25.8737 33.6146 26.2922 33.5757 26.4931C32.0621 26.443 29.7336 25.9573 27.4438 25.9909C27.4631 25.7733 27.4826 25.6393 27.502 25.4217H27.5601C27.4437 24.8691 27.4049 24.5845 27.2884 24.1659C26.551 23.7641 25.7748 23.2954 25.1152 22.408C24.4748 21.5206 26.2989 18.6409 26.2989 18.6409ZM33.7891 27.6819C33.7891 27.6819 34.9923 31.3988 33.5757 32.9559C33.5757 32.9559 33.7891 33.6758 33.304 34.446C33.2264 34.7807 33.1293 35.0822 33.0712 35.417C32.8189 36.8066 32.3919 37.3926 32.2755 39.6193L31.1111 39.6026C31.1111 39.6026 30.9753 37.9953 30.5678 37.1415C30.3351 36.656 29.4229 36.0029 29.4619 35.35C29.5006 34.8477 29.6171 34.4292 30.6068 33.7594C30.6843 32.7884 29.5588 31.8675 29.7336 28.2511L33.7891 27.6819Z" fill="#010101"/>
<path d="M33.4399 27.5312C33.7504 29.2389 34.4683 31.7671 33.1682 33.0059C33.2449 33.3201 33.2515 33.644 33.1875 33.9602C33.1488 34.1611 33.0711 34.3788 32.9741 34.6131C32.7801 35.015 32.7024 35.601 32.6442 35.9525C32.3919 37.3422 32.3919 37.4093 32.2755 39.636L31.1112 39.6192C31.1112 39.6192 30.9753 38.0119 30.5678 37.1581C30.3351 36.6726 29.8499 36.254 29.8111 35.6011C29.7723 35.0988 30.1798 34.0943 31.1501 34.1278C31.0919 32.1019 30.0052 32.5037 29.7141 28.2846L33.4399 27.5312ZM26.2989 18.6409C26.2989 18.6409 26.7258 18.7581 27.1914 18.7916C27.6572 18.8251 28.1617 18.7916 28.608 18.7748C29.5394 18.7079 30.859 18.6242 31.7322 19.0595C31.7322 19.0595 32.2173 18.9255 32.7413 18.959C32.9741 18.9757 33.2071 19.1432 33.4787 19.2101C34.3325 19.3943 35.1475 20.6165 34.7787 21.7215C34.7399 21.8053 34.4682 21.7215 34.1577 21.8053C34.2159 22.0397 34.2548 22.5755 33.9442 23.1447C33.6144 23.714 33.1875 24.4507 33.2651 25.8571C31.2276 25.7733 30.3156 25.6562 28.2974 25.5724C28.1228 24.9529 28.0063 24.3334 27.9869 24.0153C28.2586 23.8981 28.4137 23.7978 28.6273 23.5968C28.0452 23.6805 27.8123 23.647 27.4629 23.4796C27.1137 23.3121 26.4927 22.7764 26.1823 22.4248C26.1435 22.3913 25.9301 22.9437 25.445 22.9606C25.2703 22.7429 26.0076 22.1234 25.8718 21.889C25.3868 21.0351 26.2989 18.6409 26.2989 18.6409Z" fill="#F0EFEF"/>
<path d="M33.595 26.1415C33.595 26.1415 33.6338 26.7442 33.6338 26.8949C33.6338 27.0624 33.7891 27.5646 33.8084 27.799C33.595 28.1171 32.6636 28.8371 30.9753 29.105C29.3065 29.4063 27.0944 27.1461 27.0944 27.1461C27.1526 26.9285 27.3466 26.2922 27.4825 25.9574C27.5019 25.9239 27.5407 25.8402 27.5407 25.8067C27.7154 25.589 33.595 26.1415 33.595 26.1415Z" fill="#010101"/>
<path d="M33.1682 26.1918C33.1682 26.6104 33.2457 26.9118 33.304 27.1797C33.401 27.6652 33.5562 27.9833 33.5562 28.3014C33.5562 29.2724 32.0815 29.105 30.8394 29.1385C29.1706 29.4399 27.7541 27.1797 27.7541 27.1797C27.8705 26.7946 27.9482 26.3593 28.1228 25.9909C28.1421 25.79 28.181 25.5389 28.2003 25.4217C30.5677 25.4217 32.2366 25.5389 33.2069 25.6225C33.2457 25.8067 33.207 26.1248 33.1682 26.1918Z" fill="#F0EFEF"/>
<path d="M31.3052 28.3515C31.3052 28.3515 30.2768 26.3759 27.1913 26.962C26.454 28.7534 25.4643 30.8128 26.1047 33.0395C25.4643 33.7929 24.7269 34.2116 24.7269 35.6011C24.7269 36.9908 24.8046 37.2252 24.8046 37.2252L27.0749 37.3257C27.0749 37.3257 27.8123 36.5054 28.1033 35.618C28.181 35.3668 28.2586 34.9148 28.2004 34.3958C28.278 34.2953 28.6079 34.061 28.6467 33.6089C28.6467 33.6089 29.7528 33.1067 30.3932 31.8845C30.9948 30.7792 30.8395 29.8249 31.3052 28.3515Z" fill="#010101"/>
<path d="M31.3052 28.3516C31.2471 28.1675 30.4708 26.3593 27.5989 26.895C25.9107 30.7793 26.5317 32.3866 26.7839 33.0897C25.6389 34.3453 25.115 34.6132 25.348 37.1581H26.8616C27.5601 36.2038 27.7154 35.8522 27.7542 34.5965C27.7542 34.5463 27.5408 34.697 27.3855 34.8644C27.502 34.3454 27.8318 34.245 28.0841 33.9269C28.2005 33.7929 28.2975 33.592 28.2975 33.3241C29.6558 32.5372 30.1604 31.5494 30.4514 30.5281C30.6843 29.825 30.9559 28.6697 31.3052 28.3516Z" fill="#F0EFEF"/>
<path d="M26.2367 20.7317L26.1897 20.7925L26.1851 20.8692C26.1683 21.1442 26.0605 21.5152 25.8597 21.8446C25.6594 22.1731 25.3832 22.4339 25.0444 22.5363C24.8623 22.5883 24.6866 22.5682 24.5843 22.5118C24.4013 22.3948 24.1079 22.2712 23.7585 22.154L23.5369 22.5967C24.1927 23.0495 24.5075 23.3715 24.7931 23.9403C25.0323 24.4485 25.368 25.1554 26.1518 25.9141C26.0592 26.0206 25.9584 26.1177 25.8423 26.1861C25.3039 25.7989 24.618 25.4739 23.9768 25.1701C23.824 25.0977 23.6738 25.0266 23.5287 24.956C23.1192 24.7569 22.7474 24.5624 22.449 24.3564C22.1484 24.149 21.9468 23.9464 21.8482 23.7411C21.6946 23.4097 21.626 23.1959 21.617 23.0438C21.6093 22.9164 21.6426 22.8312 21.7387 22.7373L21.7389 22.7371C22.2126 22.2727 22.3583 21.8116 22.4656 21.4518C22.5759 21.0822 22.6326 20.9039 22.8485 20.7854L22.8485 20.7854L22.8498 20.7847C23.0783 20.6575 23.2743 20.669 23.4476 20.7407C23.6327 20.8173 23.8005 20.9677 23.9328 21.1275L24.366 20.9002C24.2582 20.518 24.0178 20.2825 23.8158 20.1401C23.7397 20.0864 23.6678 20.0451 23.6109 20.0144C23.6518 19.7825 23.7994 19.5692 24.0355 19.3871C24.3169 19.1701 24.7026 19.0164 25.0956 18.9548L25.0956 18.9548L25.0968 18.9546C25.7011 18.8568 26.0067 18.8625 26.3416 18.9635C26.5664 19.034 26.8285 19.0866 26.9797 19.1058C27.0427 19.1174 27.0817 19.1484 27.1119 19.2082C27.1483 19.2802 27.1707 19.397 27.1602 19.558C27.1449 19.7931 27.0623 20.0754 26.9253 20.3415C26.915 20.3301 26.9031 20.3175 26.8905 20.306C26.8823 20.2986 26.8605 20.279 26.8297 20.2626C26.8148 20.2546 26.7818 20.2386 26.7366 20.2335C26.6858 20.2278 26.6095 20.2359 26.543 20.2933L26.5191 20.3139L26.5011 20.3397C26.4783 20.3725 26.4446 20.424 26.4096 20.4776C26.396 20.4983 26.3823 20.5194 26.3688 20.5398C26.317 20.6186 26.2687 20.6902 26.2367 20.7317Z" fill="#FFF4F4" stroke="black" stroke-width="0.5"/>
<path d="M34.8758 21.1523C34.8176 21.7885 34.2742 21.4704 33.9832 21.3532C33.401 21.1355 32.8188 20.9849 32.1397 20.9849C31.4605 20.9849 30.5873 21.0351 29.8306 21.2025C28.7827 21.4536 28.4721 21.4369 28.0064 21.236C27.5408 21.0183 26.7259 20.4825 26.7259 20.4825C26.7259 20.4825 26.7064 20.65 26.9005 20.8676C27.1527 21.1355 27.7155 21.4704 28.4722 21.688C28.8409 21.7885 29.132 21.7214 29.462 21.6545C31.189 21.2862 33.013 21.2192 34.546 22.0228C34.6236 22.0563 34.8953 21.9559 35.0117 21.8052C35.1668 21.5876 34.8758 21.1523 34.8758 21.1523Z" fill="#010101"/>
<path d="M26.0466 27.5311C26.2018 27.6149 26.3959 27.6651 26.6093 27.8158C26.6093 27.8158 26.4346 27.8158 26.3571 27.7489C26.26 27.6986 26.0659 27.548 26.0466 27.5311Z" fill="#0A1825"/>
<path d="M31.6546 14.2543C31.5963 14.1037 31.1693 13.8357 30.1798 13.8357C29.1125 13.8357 28.802 14.1203 28.7827 14.271C28.7827 14.3212 28.705 14.8571 28.6856 15.0747C28.6856 15.0747 28.6856 15.3425 28.7049 15.7443C28.7244 16.0122 28.802 16.1629 28.8408 16.5145C28.8796 16.8828 28.9961 17.1172 29.2095 17.4186C29.3066 17.4687 29.3841 17.519 29.4812 17.5358C29.8693 17.6027 30.5485 17.6195 30.9172 17.5358C31.1306 17.4856 31.4023 17.1675 31.4605 16.8828C31.538 16.5313 31.6157 16.2801 31.6351 16.0625C31.6739 15.8449 31.6933 15.3593 31.7127 15.2253C31.771 14.8571 31.6739 14.2878 31.6546 14.2543Z" fill="#F0EFEF"/>
<path d="M29.6171 34.9482C29.6171 34.9482 30.6456 35.3333 33.1876 34.9984C33.1876 34.9984 32.4697 38.1125 32.7996 39.6695C32.7996 39.6695 33.1294 40.0714 35.5745 40.8415C35.5745 40.8415 36.6611 41.0759 36.6223 41.5448C36.6223 41.5448 36.6611 41.6452 35.3416 41.6117C34.0222 41.5782 32.7802 41.3773 31.9069 41.3773C31.0337 41.3773 30.1023 41.4107 29.9471 41.1931C29.7724 40.9922 29.9858 40.4732 30.2381 40.1718C30.5099 39.8537 30.4322 39.6192 30.4128 39.0501C30.3544 37.56 29.0349 36.0197 29.6171 34.9482Z" fill="#010101"/>
<path d="M29.4036 35.2328C29.2677 35.4002 29.4229 36.0364 29.617 36.6559C29.811 37.2753 30.238 37.6437 30.335 38.665C30.432 39.6695 30.4514 39.8035 30.1215 40.3894C29.7916 40.9753 29.6946 41.5111 30.8394 41.5279C31.9843 41.5447 32.6053 41.5111 33.7696 41.6619C34.934 41.8125 35.3414 41.8628 35.9818 41.7791C36.6222 41.6954 36.758 41.5111 36.4864 41.3438C36.2147 41.1763 35.0892 40.9922 34.6041 40.6573C34.1383 40.3559 32.8188 39.8536 32.7995 39.7197C32.7413 39.2676 32.7218 37.6269 32.8188 37.0911C32.9159 36.5553 33.0517 35.7852 33.0905 35.5843C33.1294 35.3834 33.3234 35.1824 32.9935 35.2494C32.6636 35.3163 31.4217 35.4671 30.4903 35.4168C29.5588 35.3667 29.4619 35.1825 29.4036 35.2328Z" fill="#8AC640"/>
<path opacity="0.3" d="M30.0634 40.4062C30.3932 40.5401 30.8784 40.6407 31.2471 40.6407C31.2471 40.6407 31.1112 41.1932 31.3246 41.528C31.538 41.8629 29.7723 41.662 29.7723 41.662L29.6947 40.4732L30.0634 40.4062ZM35.2057 41.8461C35.5162 41.7623 35.7297 41.461 35.4774 41.1764C35.2057 40.8918 34.9729 40.8416 35.3221 40.8249C35.6715 40.8081 36.9522 41.4778 36.9522 41.4778L36.2923 41.9968L35.2057 41.8461ZM29.3454 35.8857C29.7917 36.0197 30.4709 36.0531 31.053 36.0364C31.6351 36.0197 32.5084 35.9526 33.0712 35.7853C33.6339 35.6178 33.401 35.9694 33.401 35.9694L33.0905 36.2206C33.0905 36.2206 32.3532 36.4717 31.1501 36.455C29.7336 36.4382 29.3066 36.3043 29.3066 36.3043L29.3454 35.8857ZM29.3841 36.7229C29.8306 36.8569 30.5096 36.8903 31.0918 36.8736C31.6739 36.8569 32.4501 36.8569 33.0129 36.6727C33.2457 36.6058 33.11 36.8903 33.11 36.8903L33.0129 37.041C33.0129 37.041 32.2561 37.2754 31.0724 37.2586C29.6558 37.2419 29.4036 37.1414 29.4036 37.1414L29.3841 36.7229Z" fill="#010101"/>
<path d="M28.1034 24.9864C28.1034 25.1036 29.617 25.7565 30.4514 25.8905C31.2859 26.0244 33.0323 25.8905 33.3039 25.8403L33.2651 26.0747C33.2651 26.0747 31.1888 26.3426 29.5976 25.9742C28.0063 25.6059 28.1811 25.5222 28.1811 25.5222L28.1034 24.9864Z" fill="#010101"/>
<path d="M24.8628 39.2677C25.0956 39.3682 25.9301 39.5523 26.4734 39.4519C26.5509 39.4351 26.4734 38.2966 26.6869 37.7776C26.9974 37.0576 27.5019 36.4717 27.7346 35.1993C26.9196 35.1323 25.9883 34.9481 25.5031 34.8141C24.8822 36.455 25.0957 37.8613 24.8628 39.2677ZM26.163 40.3225C26.2989 40.356 26.3958 40.4899 26.4347 40.4063C26.5123 40.2555 26.2989 39.971 26.2794 39.7701V39.7533C26.1048 39.6194 24.9211 39.6026 24.9987 39.6696C24.8629 39.8872 24.6495 39.8538 24.5719 40.2891C24.5332 40.5067 24.8436 40.3225 25.1346 40.3058C24.6107 40.6071 24.0092 40.9923 23.9121 41.3271C23.7957 41.7958 23.9897 41.9298 24.5719 42.181C25.0765 42.2815 25.678 42.2982 26.1437 42.2815C26.6676 42.1977 26.7647 41.9801 26.6094 41.6787C26.3764 41.2266 26.2212 40.6406 26.163 40.3225Z" fill="#F0EFEF"/>
<path d="M26.3764 18.5739C27.0168 18.892 27.9095 18.8083 28.2393 18.7916C28.3169 18.7916 29.0932 18.6744 29.1319 18.691C29.2095 18.7078 29.2095 18.758 29.2095 18.758C29.2095 18.758 28.9184 18.8919 28.2587 18.9254C27.6377 18.9588 26.9004 18.9254 26.4929 18.758C26.0077 18.5739 26.3764 18.5739 26.3764 18.5739ZM32.9741 18.892C33.0905 18.9589 33.8473 19.2101 34.1773 19.5115C34.4683 19.7794 34.3131 19.7627 34.2548 19.6957C34.1773 19.6119 33.5756 19.2603 33.3428 19.1767C33.11 19.093 32.8188 18.9422 32.8188 18.9088C32.8188 18.8753 32.9741 18.892 32.9741 18.892Z" fill="#010101"/>
<path d="M26.2793 25.8402C26.8421 25.8067 27.4243 25.924 27.7929 26.2587C27.987 26.4262 28.2975 26.6103 28.2587 26.7777C28.2587 26.828 28.1422 26.9619 28.0453 27.0624C27.9871 27.1293 27.8125 27.28 27.7542 27.3303C27.6766 27.3805 27.4049 27.5647 27.3467 27.5982C27.2885 27.6317 27.2109 27.7155 27.1526 27.7321C26.9587 27.8159 26.7452 27.7489 26.5511 27.6652C26.3572 27.5815 26.59 27.5647 26.3765 27.4308C25.8526 27.1127 25.5615 26.895 25.775 26.2755C25.7943 26.1583 26.0077 26.0243 26.2793 25.8402Z" fill="#F0EFEF"/>
<path opacity="0.4" d="M21.3312 22.0061C19.5847 22.6089 15.1409 24.5176 13.8797 25.1036C14.9275 25.6728 15.4126 27.0457 15.5679 28.4353C15.5873 28.5693 15.6067 28.6865 15.6261 28.8204C15.6455 28.9376 15.6649 29.0213 15.6842 29.0716C15.6842 29.0884 15.6842 29.1218 15.7037 29.1385C16.8486 26.443 20.943 23.5967 21.0982 23.3791C21.1758 23.2786 21.0012 22.8433 21.2729 22.4249C21.6222 21.8889 22.3015 21.6545 21.3312 22.0061ZM25.4838 34.6468C26.3764 33.1065 26.3958 31.6331 26.3764 29.9086C26.3764 29.1886 26.9779 28.1673 26.6675 28.452C25.5032 29.5737 22.5731 31.6833 20.4579 31.8005C23.4269 31.7168 24.5912 33.006 25.4838 34.6468Z" fill="#010101"/>
<path d="M12.172 26.5266C13.2781 25.8402 19.0025 23.2117 20.3803 22.8433C21.758 22.4582 21.3311 22.0061 21.3311 22.0061C21.3311 22.0061 15.7425 24.0822 12.4048 25.8737" fill="#010101"/>
<path opacity="0.4" d="M28.4721 21.688C28.0258 21.5374 27.6765 21.9895 27.7929 22.4248C27.9095 22.8601 28.9573 23.3456 28.899 24.9362C28.8602 26.2421 28.5303 26.7778 28.5303 26.7778L27.7929 25.9742C27.7929 25.9742 27.6765 24.166 27.4243 23.8981C27.1721 23.6302 26.3764 23.1447 26.0659 22.8935C25.7554 22.6424 26.4152 22.3076 26.3764 21.8387C26.3376 21.3867 26.7063 20.4826 26.7063 20.4826L28.4721 21.688ZM31.1694 28.8203C31.1307 30.076 31.4606 31.9345 31.5963 32.8219C31.7322 33.7092 31.9068 33.7762 31.5963 34.178C31.2859 34.5631 30.8784 35.1993 30.8784 35.1993L29.5394 35.0988C29.5394 35.0988 30.6067 33.9268 30.6648 33.7092C30.723 33.4916 30.1215 31.8341 30.1215 31.8341L31.1694 28.8203ZM28.5886 17.1006C28.8603 17.6195 29.1902 17.8539 29.714 18.0047C30.0245 18.1051 31.247 18.2391 31.7322 17.7703C31.9456 17.5526 31.8097 16.9666 31.8097 16.9666L30.7037 17.7367L29.2095 17.5024L29.0349 17.1173L28.5886 17.1006Z" fill="#010101"/>
<path d="M28.5303 18.306C29.1707 18.5405 30.4126 18.7916 30.7619 18.8586C31.1111 18.9256 31.6739 18.6241 31.9456 18.4735C32.4308 18.2056 33.0517 18.4232 33.3428 18.7079C33.5368 18.892 33.6145 19.0092 33.6145 19.0595C33.6145 19.1264 33.3817 19.0595 33.3817 19.0595C33.2458 19.0092 33.0905 18.9925 32.9742 18.9255C32.8189 18.8586 32.6636 18.7581 32.4309 18.7748C31.4606 18.8753 31.2665 19.1599 30.4322 18.9925C29.5978 18.825 29.3843 18.6744 28.4917 18.7245" fill="#8AC640"/>
<path d="M25.5226 33.9435C25.4838 33.9101 25.5614 33.8766 25.5226 33.8766C25.2704 33.8766 24.9211 33.7092 24.7269 33.4748C23.8926 32.4368 22.67 31.7503 20.4579 31.8006C17.1396 31.8675 15.82 30.6956 15.5678 28.4521C15.432 27.2299 15.0439 26.0411 14.2483 25.3714L13.7825 25.6226C14.6751 26.2923 14.9662 27.3806 15.1603 28.8706C15.4708 31.1141 17.5665 32.1522 20.0115 32.1857C22.5536 32.2191 23.4656 32.6712 24.4164 33.7763C24.7268 34.1278 25.0762 34.245 25.3478 34.2953L25.5226 33.9435Z" fill="#010101"/>
<path opacity="0.4" d="M34.5265 23.1781C34.5847 23.4292 34.7399 23.9148 35.0504 24.1491C35.1863 24.2663 35.2057 24.2998 35.0893 24.2998C34.9727 24.2998 34.1189 24.2663 34.1189 24.2663L33.8861 23.9148L34.5265 23.1781Z" fill="#010101"/>
</g>
<defs>
<clipPath id="clip0_104_184">
<rect width="30" height="30" fill="white" transform="translate(8 13)"/>
</clipPath>
</defs>
</svg>
